Coordinates
version=1
nRows=8
nColumns=40
inDegrees=yes

Units are S.I. units (second, meters, Newtons, ...)
Angles are in degrees.

endheader
time	pelvis_tilt	pelvis_list	pelvis_rotation	pelvis_tx	pelvis_ty	pelvis_tz	hip_flexion_r	hip_adduction_r	hip_rotation_r	knee_angle_r	knee_angle_r_beta	ankle_angle_r	subtalar_angle_r	mtp_angle_r	hip_flexion_l	hip_adduction_l	hip_rotation_l	knee_angle_l	knee_angle_l_beta	ankle_angle_l	subtalar_angle_l	mtp_angle_l	lumbar_extension	lumbar_bending	lumbar_rotation	arm_flex_r	arm_add_r	arm_rot_r	elbow_flex_r	pro_sup_r	wrist_flex_r	wrist_dev_r	arm_flex_l	arm_add_l	arm_rot_l	elbow_flex_l	pro_sup_l	wrist_flex_l	wrist_dev_l
      3.70750000	     -5.50931769	     -4.29901948	     10.83131249	      0.94985088	      0.92194369	      0.45902114	      0.84525454	     -1.51105896	    -16.02104350	     18.04669282	     18.04669282	     17.24277161	      0.84281207	     -3.18924643	     26.54590237	     -4.03816370	      5.03431155	     25.12985482	     25.12985482	      7.33334993	    -10.44594475	      2.93496193	     -8.62269701	      3.38596594	      5.31657799	     56.84419161	    -17.28137005	     -6.20336860	     69.21014443	     45.40582988	      0.00000000	      0.00000000	    -15.11857252	    -13.21136436	     24.81345641	     37.16504145	     43.63249945	      0.00000000	      0.00000000
      3.72942857	     -5.56015515	     -4.42156395	     10.03186029	      0.95133583	      0.92220052	      0.45421695	      0.55224263	     -1.83695124	    -15.85071566	     18.02797083	     18.02797083	     16.95590377	      1.84276550	     -3.52925763	     26.36784196	     -4.07121841	      4.68049374	     25.81088679	     25.81088679	      8.31831600	    -10.93939094	      4.01528921	     -8.56276669	      3.41154406	      4.73021648	     55.66964794	    -15.92787945	     -6.87603417	     64.48509347	     45.58156348	      0.00000000	      0.00000000	    -14.53786097	    -13.51747318	     23.80354145	     37.37073488	     43.88219302	      0.00000000	      0.00000000
      3.75135714	     -5.56730849	     -4.57586723	      9.22233604	      0.95285113	      0.92245238	      0.44941350	      0.28484411	     -2.09644139	    -15.38570860	     18.10004535	     18.10004535	     16.69117695	      2.38644868	     -3.53699332	     26.05281686	     -4.15478076	      4.29126844	     26.29960522	     26.29960522	      8.85739300	    -11.52951090	      3.89032392	     -8.64128450	      3.47562133	      4.68739518	     53.05051298	    -15.70832706	     -6.80607239	     63.00710421	     45.61651040	      0.00000000	      0.00000000	    -13.56129292	    -13.99208141	     23.48508912	     37.62242350	     43.93928853	      0.00000000	      0.00000000
      3.77328571	     -5.50670350	     -4.75812507	      8.42447917	      0.95432895	      0.92277031	      0.44459561	      0.04126724	     -2.36386033	    -14.95920434	     18.32941804	     18.32941804	     16.41569665	      2.95985295	     -3.60033359	     25.64417372	     -4.27079611	      3.89688585	     26.72691021	     26.72691021	      9.37943684	    -12.10169880	      3.80381520	     -8.71728310	      3.61240166	      4.63208690	     50.20195020	    -15.41772317	     -6.74170196	     61.29789473	     45.65850967	      0.00000000	      0.00000000	    -12.39735876	    -14.46996060	     23.16283626	     37.90317254	     43.99633376	      0.00000000	      0.00000000
      3.79521429	     -5.61252034	     -4.80266663	      7.64476743	      0.95553325	      0.92293313	      0.43944018	      0.09938606	     -2.98602348	    -15.03982339	     18.82055689	     18.82055689	     15.88395879	      4.22340662	     -4.79578031	     25.39124654	     -4.14923843	      3.53022663	     27.16385753	     27.16385753	     10.35669113	    -12.55730893	      5.10683029	     -8.49063845	      3.55308441	      4.71502101	     48.72813107	    -14.97387165	     -8.29469798	     54.07796357	     45.94717955	      0.00000000	      0.00000000	    -10.93532701	    -14.62606064	     21.93259507	     37.43044735	     44.26518475	      0.00000000	      0.00000000
      3.81714286	     -5.44061532	     -5.06863356	      6.95801756	      0.95684236	      0.92344844	      0.43436328	     -0.02736203	     -3.22037920	    -14.56631162	     19.43376571	     19.43376571	     15.47775651	      4.51174376	     -4.88935889	     24.83190629	     -4.30889287	      3.18883353	     27.45197736	     27.45197736	     10.82571618	    -13.00681447	      4.99349768	     -8.79129295	      3.87695005	      4.16689583	     45.53963293	    -14.28538350	     -8.11268575	     52.77431111	     45.96703560	      0.00000000	      0.00000000	     -9.78708676	    -15.02653313	     21.67956221	     37.72148232	     44.31185970	      0.00000000	      0.00000000
      3.83907143	     -5.57123231	     -5.04034219	      6.21138507	      0.95782210	      0.92350933	      0.42907064	      0.58070384	     -3.99844465	    -14.17816612	     20.80569500	     20.80569500	     14.41229830	      4.53195926	     -7.44739072	     24.53864758	     -4.08520090	      2.76836584	     27.72404510	     27.72404510	     11.58646353	    -13.42373189	      5.78554151	     -8.55033140	      3.76494998	      4.65893634	     42.63275172	    -14.68181304	     -8.86618938	     47.63725853	     46.14601831	      0.00000000	      0.00000000	     -7.72427810	    -15.10759109	     20.46768374	     37.06350466	     44.55749226	      0.00000000	      0.00000000
      3.86100000	     -5.56312584	     -5.13354604	      5.53910414	      0.95864659	      0.92363590	      0.42376534	      1.39726224	     -4.65869894	    -13.60658128	     22.83720687	     22.83720687	     13.81052426	      4.24315438	     -8.34009336	     24.13710678	     -4.00734724	      2.33410159	     27.95741631	     27.95741631	     12.05660642	    -13.76398356	      5.73480423	     -8.62794409	      3.88478473	      4.50911543	     38.98244965	    -14.54361915	     -8.83275289	     45.53421418	     46.19528581	      0.00000000	      0.00000000	     -6.14057650	    -15.50728623	     19.99082969	     37.46101330	     44.64639806	      0.00000000	      0.00000000
